<svg width="50" height="50" viewBox="0 0 50 50" fill="none" xmlns="http://www.w3.org/2000/svg">
<path fill-rule="evenodd" clip-rule="evenodd" d="M33.0953 0.0938646C30.3621 0.398991 27.4777 1.58225 25.4214 3.24182C25.1526 3.45886 22.8101 5.75166 20.2158 8.33707L15.4991 13.0377L22.1708 19.7106C25.8401 23.3807 28.8759 26.3834 28.917 26.3834C28.9579 26.3834 29.376 26.1231 29.8459 25.8049C31.5291 24.6648 33.5272 23.8368 35.5657 23.4344C37.0096 23.1494 39.5045 23.1302 40.9646 23.3927C42.2994 23.6327 44.0474 24.2209 45.1927 24.8154L46.1456 25.31L46.467 24.9424C46.6438 24.7402 47.0547 24.1809 47.3802 23.6995C51.0198 18.3169 50.8543 11.2989 46.9635 6.03625C43.8278 1.79479 38.4606 -0.50495 33.0953 0.0938646ZM36.3765 4.09991C38.5397 4.40083 40.7165 5.40528 42.3225 6.8436C43.3908 7.80034 43.5677 8.87801 42.7913 9.69865C42.4074 10.1045 42.0635 10.2521 41.5023 10.2521C40.8908 10.2521 40.5456 10.0809 39.8027 9.40946C38.9065 8.59957 37.4026 7.89204 36.0975 7.6662C35.8939 7.63101 35.278 7.60334 34.729 7.60461C32.9078 7.60911 31.2414 8.22415 29.8627 9.40066C28.9335 10.1935 28.8195 10.2521 28.2043 10.2521C27.3005 10.2521 26.685 9.7796 26.4532 8.90783C26.2661 8.20509 26.4463 7.77443 27.2623 6.97334C29.5382 4.739 33.0382 3.63562 36.3765 4.09991ZM8.30559 20.2485C5.72044 22.843 3.42787 25.1858 3.21085 25.4547C1.77815 27.2302 0.667251 29.7065 0.184826 32.2005C-0.0778432 33.5585 -0.0574123 36.2708 0.226177 37.6809C0.535672 39.2202 0.95827 40.4265 1.67961 41.8304C3.80814 45.9727 7.64554 48.8365 12.3219 49.7725C13.8604 50.0805 16.5617 50.075 18.0409 49.7609C19.4084 49.4704 20.8576 48.9788 21.9209 48.4447C22.8546 47.9758 24.3137 47.0258 24.9043 46.5023L25.2669 46.181L24.7491 45.1406C22.2978 40.2159 22.7015 34.3744 25.8086 29.8108C26.1064 29.3734 26.3501 28.9841 26.3501 28.9458C26.3501 28.9074 23.3476 25.8734 19.678 22.2037L13.0058 15.5314L8.30559 20.2485ZM35.4903 27.1104C31.0328 28.2686 27.6152 31.9977 26.8849 36.4999C26.0219 41.822 28.9008 47.0207 33.8723 49.1177C34.6795 49.4581 36.0334 49.8472 36.4108 49.8472H36.6145V38.3597C36.6145 29.2323 36.5893 26.8732 36.4923 26.8771C36.4251 26.8797 35.9742 26.9847 35.4903 27.1104ZM40.1337 38.3579V49.8472H40.3671C40.6992 49.8472 42.1952 49.4011 43.033 49.0522C44.0863 48.6138 45.6418 47.5411 46.5689 46.6139C50.1421 43.0403 51.0101 37.6386 48.7359 33.128C47.4985 30.6736 45.3284 28.6711 42.7731 27.6257C42.0635 27.3354 41.4253 27.1483 40.3536 26.9162L40.1337 26.8685V38.3579Z" fill="white"/>
</svg>
