<svg width="40" height="40" viewBox="0 0 40 40" fill="none" xmlns="http://www.w3.org/2000/svg">
<circle cx="20" cy="20" r="18.5" stroke="#00A7E0" stroke-width="3"/>
<path d="M20.1598 27.1989C19.4117 27.1941 18.6896 27.0687 17.9936 26.8224C17.3023 26.5762 16.6821 26.1761 16.1328 25.6222C15.5836 25.0682 15.148 24.3343 14.826 23.4205C14.5088 22.5066 14.3501 21.3845 14.3501 20.054C14.3549 18.8324 14.4946 17.741 14.7692 16.7798C15.0485 15.8139 15.4463 14.9948 15.9624 14.3224C16.4832 13.6501 17.1058 13.1387 17.8303 12.7884C18.5547 12.4332 19.3667 12.2557 20.2663 12.2557C21.237 12.2557 22.094 12.4451 22.8374 12.8239C23.5807 13.1979 24.1773 13.7069 24.6271 14.3509C25.0817 14.9948 25.3563 15.7169 25.451 16.517H22.4183C22.3 16.0104 22.0514 15.6127 21.6726 15.3239C21.2938 15.035 20.825 14.8906 20.2663 14.8906C19.3194 14.8906 18.5997 15.3026 18.1072 16.1264C17.6196 16.9503 17.371 18.0701 17.3615 19.4858H17.4609C17.6787 19.0549 17.9723 18.688 18.3416 18.3849C18.7157 18.0772 19.1394 17.8428 19.6129 17.6818C20.0911 17.5161 20.5954 17.4332 21.1257 17.4332C21.9875 17.4332 22.7545 17.6368 23.4268 18.044C24.0992 18.4465 24.6295 19.0005 25.0178 19.706C25.406 20.4115 25.6001 21.2187 25.6001 22.1278C25.6001 23.1127 25.3705 23.9886 24.9112 24.7557C24.4567 25.5227 23.8198 26.1241 23.0007 26.5597C22.1863 26.9905 21.2393 27.2036 20.1598 27.1989ZM20.1456 24.7841C20.6191 24.7841 21.0429 24.6705 21.4169 24.4432C21.791 24.2159 22.0845 23.9081 22.2976 23.5199C22.5107 23.1316 22.6172 22.696 22.6172 22.2131C22.6172 21.7301 22.5107 21.2969 22.2976 20.9134C22.0893 20.5298 21.8004 20.2244 21.4311 19.9972C21.0618 19.7699 20.6404 19.6562 20.1669 19.6562C19.8118 19.6562 19.4827 19.7225 19.1797 19.8551C18.8814 19.9877 18.6186 20.1723 18.3913 20.4091C18.1688 20.6458 17.9936 20.9205 17.8658 21.233C17.7379 21.5407 17.674 21.8698 17.674 22.2202C17.674 22.6889 17.7805 23.1174 17.9936 23.5057C18.2114 23.8939 18.505 24.2041 18.8743 24.4361C19.2483 24.6681 19.6721 24.7841 20.1456 24.7841Z" fill="#00A7E0"/>
</svg>
