<svg width="40" height="40" viewBox="0 0 40 40" fill="none" xmlns="http://www.w3.org/2000/svg">
<circle cx="20" cy="20" r="18.5" stroke="#00A7E0" stroke-width="3"/>
<path d="M15.3801 27V24.7841L20.5577 19.9901C20.998 19.5639 21.3674 19.1804 21.6657 18.8395C21.9687 18.4986 22.1983 18.1648 22.3546 17.8381C22.5108 17.5066 22.589 17.1491 22.589 16.7656C22.589 16.3395 22.4919 15.9725 22.2978 15.6648C22.1036 15.3523 21.8385 15.1132 21.5023 14.9474C21.1661 14.777 20.785 14.6918 20.3588 14.6918C19.9138 14.6918 19.5255 14.7817 19.1941 14.9616C18.8626 15.1416 18.6069 15.3996 18.427 15.7358C18.2471 16.072 18.1571 16.4721 18.1571 16.9361H15.2381C15.2381 15.9844 15.4535 15.1581 15.8844 14.4574C16.3153 13.7566 16.919 13.2145 17.6955 12.831C18.472 12.4474 19.3669 12.2557 20.3801 12.2557C21.4218 12.2557 22.3285 12.4403 23.1003 12.8097C23.8768 13.1742 24.4805 13.6809 24.9114 14.3295C25.3423 14.9782 25.5577 15.7216 25.5577 16.5597C25.5577 17.1089 25.4488 17.651 25.231 18.1861C25.0179 18.7211 24.6368 19.3153 24.0875 19.9688C23.5383 20.6174 22.7641 21.3963 21.7651 22.3054L19.6415 24.3864V24.4858H25.7495V27H15.3801Z" fill="#00A7E0"/>
</svg>
