<svg width="40" height="40" viewBox="0 0 40 40" fill="none" xmlns="http://www.w3.org/2000/svg">
<circle cx="20" cy="20" r="18.5" stroke="#00A7E0" stroke-width="3"/>
<path d="M20.5462 27.1989C19.5424 27.1989 18.6475 27.0142 17.8615 26.6449C17.0803 26.2756 16.46 25.7666 16.0007 25.1179C15.5414 24.4692 15.3023 23.7259 15.2834 22.8878H18.2663C18.2995 23.4512 18.5362 23.9081 18.9766 24.2585C19.4169 24.6089 19.9401 24.7841 20.5462 24.7841C21.0291 24.7841 21.4553 24.6776 21.8246 24.4645C22.1986 24.2467 22.4898 23.946 22.6982 23.5625C22.9112 23.1742 23.0178 22.7292 23.0178 22.2273C23.0178 21.7159 22.9089 21.2661 22.6911 20.8778C22.478 20.4896 22.1821 20.1866 21.8033 19.9688C21.4245 19.7509 20.9912 19.6397 20.5036 19.6349C20.0774 19.6349 19.6631 19.7225 19.2607 19.8977C18.8629 20.0729 18.5528 20.312 18.3303 20.6151L15.5959 20.125L16.2848 12.4545H25.1768V14.9688H18.8203L18.4439 18.6122H18.5291C18.7848 18.2524 19.1707 17.9541 19.6868 17.7173C20.2029 17.4806 20.7805 17.3622 21.4197 17.3622C22.2957 17.3622 23.0769 17.5682 23.7635 17.9801C24.45 18.392 24.9922 18.9579 25.3899 19.6776C25.7876 20.3925 25.9841 21.2164 25.9794 22.1491C25.9841 23.1293 25.7569 24.0005 25.2976 24.7628C24.843 25.5204 24.2062 26.117 23.3871 26.5526C22.5727 26.9834 21.6257 27.1989 20.5462 27.1989Z" fill="#00A7E0"/>
</svg>
