<svg width="65" height="50" viewBox="0 0 65 50" fill="none" xmlns="http://www.w3.org/2000/svg">
<path fill-rule="evenodd" clip-rule="evenodd" d="M38.2218 1.91654V3.83309H40.1266H42.0313V5.80645V7.77969L41.6186 7.8466C40.01 8.10733 38.8929 8.34291 38.0229 8.60479C31.3823 10.6036 26.1442 15.733 24.0017 22.3352C23.2354 24.696 23.0474 25.9818 23.0474 28.8593C23.0474 30.7477 23.1047 31.6575 23.2842 32.6259C24.6653 40.0701 29.8923 46.2491 36.952 48.7829C43.3588 51.0824 50.5642 50.0836 56.1264 46.1253C57.6742 45.0237 60.0153 42.669 61.1054 41.117C67.9315 31.3999 65.5536 18.1283 55.7806 11.3976C53.0205 9.49679 50.1935 8.44199 46.2502 7.84187L45.8342 7.77854L45.8692 5.83774L45.9043 3.89693L47.8442 3.86169L49.784 3.82645L49.749 1.94642L49.7138 0.066396L43.9678 0.0331982L38.2218 0V1.91654ZM0 17.3684V19.2846L9.55546 19.2518L19.1109 19.2191L19.1461 17.3357L19.1811 15.4524H9.59063H0V17.3684ZM47.4281 15.8783C51.2322 16.9437 54.2232 19.4207 55.9337 22.9219C57.8185 26.78 57.8456 30.8114 56.0128 34.6689C53.2565 40.4699 46.8217 43.483 40.6002 41.8859C39.2895 41.5494 37.0192 40.4443 35.9361 39.6157C33.5541 37.7928 31.8048 35.1556 31.0135 32.1942C30.7232 31.1078 30.6854 30.7229 30.6854 28.8593C30.6854 26.9923 30.723 26.6117 31.0156 25.5161C32.2508 20.8911 35.8569 17.1853 40.3201 15.9542C41.9193 15.513 42.3725 15.4636 44.3805 15.5121C45.9272 15.5495 46.5001 15.6184 47.4281 15.8783ZM41.3329 19.6307C39.9743 19.9668 38.1808 21.1145 36.9592 22.4298C35.9617 23.5039 35.0865 25.1046 34.7006 26.5609C34.401 27.6912 34.4088 30.1455 34.7155 31.2853C35.4483 34.0088 37.2904 36.2475 39.8091 37.4755C41.3833 38.2432 42.5596 38.481 44.4235 38.409C46.8347 38.3158 48.6819 37.5419 50.456 35.8819C51.7803 34.6426 52.9397 32.7054 53.2641 31.1895L53.353 30.7745H47.6921H42.0313V25.1564C42.0313 18.997 42.0878 19.4441 41.3329 19.6307ZM45.8408 23.2248V26.944H49.5868C51.6471 26.944 53.3328 26.8966 53.3328 26.8386C53.3328 26.7807 53.1892 26.3088 53.0137 25.7898C52.535 24.3746 51.7707 23.1772 50.5985 22.006C49.7176 21.1259 49.3476 20.8615 48.2371 20.3184C47.5128 19.9642 46.6772 19.6365 46.3805 19.5901L45.8408 19.5056V23.2248ZM9.52371 25.0287V26.944H14.3491H19.1744V25.0287V23.1134H14.3491H9.52371V25.0287ZM0 32.6889V34.6051H8.63826H17.2764L17.2413 32.7217L17.2062 30.8384L8.60309 30.8055L0 30.7727V32.6889ZM5.77035 38.6003C5.73531 38.6921 5.72274 39.5688 5.74216 40.5485L5.77772 42.33H13.3967H21.0157V40.4147V38.4994L13.4249 38.4665C7.27231 38.4398 5.82191 38.4652 5.77035 38.6003Z" fill="white"/>
</svg>
