<svg width="50" height="50" viewBox="0 0 50 50" fill="none" xmlns="http://www.w3.org/2000/svg">
<path fill-rule="evenodd" clip-rule="evenodd" d="M47.8962 0.116402C47.5712 0.292513 32.6135 15.2369 32.4449 15.5539C32.0222 16.3481 32.4887 17.3898 33.3734 17.6278C34.2224 17.8562 34.0366 18.02 42.2776 9.77331C49.4966 2.54922 49.9149 2.11045 49.9823 1.69223C50.1223 0.822723 49.412 -0.00642715 48.5329 3.75566e-05C48.2975 0.00181014 48.0109 0.0541533 47.8962 0.116402ZM23.8944 2.74983C22.8046 3.09517 22.6831 3.20851 12.2769 13.5879C6.6335 19.2169 1.81385 24.104 1.56673 24.4481C0.985996 25.2566 0.547286 26.1382 0.241629 27.1106C0.0296829 27.7851 -0.00256288 28.0977 0.000150358 29.453C0.00317666 30.941 0.0197691 31.0644 0.340558 31.9911C0.717176 33.079 1.02878 33.6656 1.6785 34.5101C2.29566 35.3122 15.2327 48.1759 15.8069 48.5584C18.534 50.375 21.996 50.4822 24.8336 48.8377C25.5935 48.3974 26.6007 47.4237 36.0594 37.9853C42.9214 31.1379 46.5616 27.4326 46.7776 27.0749C47.1433 26.4695 47.4267 25.5062 47.4263 24.8693C47.4261 24.5227 45.3735 12.2031 45.1771 11.3697C45.123 11.1404 44.866 11.3675 42.463 13.7671C39.8801 16.3465 39.8086 16.429 39.807 16.8357C39.8047 17.4671 39.5363 18.4776 39.1734 19.2215C38.2012 21.2135 36.2398 22.5332 34.0103 22.6948C32.5267 22.8024 31.2997 22.4722 29.9757 21.6087C28.2361 20.4743 27.2568 18.5813 27.264 16.3672C27.2746 13.1528 29.6895 10.5107 32.9343 10.1635L33.6222 10.0899L36.2149 7.49774C37.641 6.07196 38.7842 4.88183 38.7552 4.85305C38.7263 4.82417 35.802 4.30626 32.2567 3.70212C25.6483 2.57601 24.7618 2.47498 23.8944 2.74983Z" fill="white"/>
</svg>
