<svg width="50" height="50" viewBox="0 0 50 50" fill="none" xmlns="http://www.w3.org/2000/svg">
<path fill-rule="evenodd" clip-rule="evenodd" d="M21.2314 0.123758C21.0694 0.551204 21.5179 2.81258 22.0215 4.10758C22.671 5.77789 23.4444 6.91828 24.9506 8.42705C26.8582 10.3379 28.6853 11.3393 30.3372 11.3796C31.2694 11.4024 31.3047 11.3138 30.7736 10.2839C29.8546 8.50194 28.5206 6.62636 27.0732 5.08148C26.3284 4.28653 26.3282 4.28634 26.8165 4.61822C27.0852 4.80083 27.8575 5.50991 28.5329 6.19406C29.7484 7.42536 30.4586 8.30231 31.4435 9.78724C31.7231 10.2089 31.9858 10.5539 32.0271 10.5539C32.2523 10.5539 32.3368 10.2576 32.3362 9.47069C32.3345 7.40785 31.3891 5.25637 29.6472 3.35161C28.1563 1.72126 25.6715 0.566141 22.8106 0.173516C22.3807 0.114459 21.8629 0.0436304 21.6601 0.0161298C21.3809 -0.0217577 21.2767 0.00435801 21.2314 0.123758ZM48.5559 1.32389C45.8483 1.61749 42.6851 2.49642 40.6327 3.52542C36.6749 5.50962 33.4049 9.79862 32.5212 14.1646C32.3903 14.8114 32.3494 17.0725 32.4611 17.4923C32.537 17.7777 32.7681 17.917 32.9718 17.8002C33.0431 17.7592 33.3751 17.3029 33.7096 16.786C35.6464 13.793 38.1721 10.8786 40.4033 9.06194C41.8252 7.90424 41.8824 7.91295 40.7869 9.1205C38.343 11.8138 36.9973 13.6135 35.6192 16.0317C34.4307 18.1173 34.1075 18.9348 34.3998 19.1177C34.4596 19.1551 34.9137 19.1844 35.4089 19.1826C38.0807 19.1734 41.4425 17.31 44.4154 14.1902C46.4704 12.0335 47.6128 10.2871 48.6056 7.78405C49.4724 5.59934 50.2543 1.80673 49.9217 1.40095C49.8049 1.2584 49.3803 1.23446 48.5559 1.32389ZM15.2592 7.54871C15.0504 7.94797 15.5051 10.5413 16.1244 12.4829C16.937 15.0307 18.3389 17.3855 20.2527 19.4177C23.3409 22.6968 26.5301 24.502 29.2346 24.502C29.8972 24.502 30.1873 24.3798 30.1873 24.1005C30.1873 23.8835 29.1433 21.8034 28.5723 20.8826C27.1288 18.5551 25.7006 16.7097 23.8417 14.7704C22.6922 13.5709 22.759 13.5441 24.1296 14.6548C26.4405 16.5275 28.8816 19.32 30.73 22.2053C31.0495 22.7042 31.3659 23.1342 31.4331 23.161C31.6421 23.2445 31.847 23.1064 31.9185 22.8342C32.0285 22.4149 31.9883 20.3511 31.8576 19.7043C31.1625 16.2645 28.739 12.5925 25.8088 10.5394C23.5656 8.96776 19.7024 7.71817 16.2012 7.43189C15.4347 7.36917 15.3474 7.38005 15.2592 7.54871ZM30.3827 28.0714C29.8722 28.1191 28.5972 28.3151 27.5493 28.5068C22.2765 29.4714 20.1452 29.7521 16.2643 29.9928C11.9983 30.2575 10.3177 30.4826 9.14844 30.9461C7.2894 31.6831 4.09981 35.2024 0.895274 40.0523L0 41.4071L4.37055 45.7036L8.74101 50L9.32988 49.4433C12.0256 46.8945 14.8336 44.9677 16.2526 44.6931C16.5277 44.6399 18.3137 44.574 20.2214 44.5468C25.4388 44.4725 30.5271 44.1573 31.7863 43.8305C35.795 42.79 42.2642 38.9969 46.5956 35.147C47.9742 33.9218 48.1269 33.6681 47.9543 32.8903C47.8169 32.2709 47.4659 31.8758 46.7255 31.5068C46.104 31.1969 46.0131 31.1797 45.0406 31.1859C44.1071 31.1918 43.9191 31.2266 42.9956 31.5637C41.8018 31.9996 40.8573 32.4688 38.3912 33.8508C35.0587 35.7185 34.0276 36.1803 32.4187 36.5258C30.5908 36.9183 27.3225 36.8936 24.7212 36.4674C24.0525 36.3579 23.4891 36.2519 23.4693 36.2318C23.4175 36.1794 25.0291 35.6517 26.6211 35.1998C29.98 34.2464 30.6699 33.9226 31.8238 32.7576C32.918 31.6531 33.4091 30.3416 33.1264 29.2795C33.0142 28.8583 32.644 28.3287 32.3507 28.1697C32.0709 28.0181 31.3405 27.9816 30.3827 28.0714Z" fill="white"/>
</svg>
